{"title":"Live_Music_Performances_From_Talk_Shows And_MP3-1-24-to-27","uid":6134451,"size":650670924,"categoryP":"video","categoryS":"hd___tv_shows","magnet":"?xt=urn:btih:217a7c7c4079afd4dc5e35e0a73d62fb920e8675&amp;dn=Live_Music_Performances_From_Talk_Shows+And_MP3-1-24-to-27&amp;tr=udp%3A%2F%2Ftracker.openbittorrent.com%3A80&amp;tr=udp%3A%2F%2Fopen.demonii.com%3A1337&amp;tr=udp%3A%2F%2Ftracker.coppersurfer.tk%3A6969&amp;tr=udp%3A%2F%2Fexodus.desync.com%3A6969","seeders":0,"leechers":1,"uploader":"thetorrentlord","files":10,"time":1296245695,"description":"J_Kimmel_Cory_Monteith_720p_2011-01-24_TTL.avi                                                                     \n\n                                                                                                                   \nJ_Kimmel_Delta_Spirit_SONG_ONLY_2011-01-25.mp3                                                                     \n\n                                                                                                                   \nJ_Kimmel_The_Script_SONG_ONLY_2011-01-24.mp3                                                                       \n\n                                                                                                                   \nJ_Kimmel_The_Script_SONG_ONLY_720p_2011-01-24_TTL.avi                                                              \n\n                                                                                                                   \nTonight_Billy_Currington_SONG_ONLY_2011-01-27.mp3                                                                  \n\n                                                                                                                   \nTonight_Billy_Currington_SONG_ONLY_720p_2011-01-27_TTL.avi                                                         \n\n                                                                                                                   \nTonight_Lizz_Wright_SONG_ONLY_2011-01-24.mp3                                                                       \n\n                                                                                                                   \nTonight_Lizz_Wright_SONG_ONLY_720p_2011-01-24_TTL.avi \t\t\t\t\t\t\t\t\t\n\n\t\t\t\t\t\t\t\t\t\t\t\t\t\t\t\n\n******************************************************************************************************************\t\n\n\t\t\t\t\t\t\t\t\t\t\t\t\t\t\t\n\n\t\t\t\t\t\t\t\t\t\t\t\t\t\t\t\n\n\t\t\t\t\t\t\t\t\t\t\t\n\nJ_Kimmel_The_Script_SONG_ONLY_720p_2011-01-24_TTL.avi\nFormat                           : AVI\nFormat/Info                      : Audio Video Interleave\nFile size                        : 117 MiB\nDuration                         : 4mn 9s\nOverall bit rate                 : 3 941 Kbps\nMovie name                       : J_Kimmel_The_Script_SONG_ONLY_720p_2011-01-24_TTL.mpg\nDirector                         : created.with.SUPER(C).v2009.bld.35\nWriting application              : SUPER(C)   \n\nVideo\nID                               : 0\nFormat                           : MPEG-4 Visual\nFormat profile                   : Simple@L3\nFormat settings, BVOP            : No\nFormat settings, QPel            : No\nFormat settings, GMC             : No warppoints\nFormat settings, Matrix          : Default (H.263)\nCodec ID                         : XVID\nCodec ID/Hint                    : XviD\nDuration                         : 4mn 9s\nBit rate                         : 3 816 Kbps\nWidth                            : 1 280 pixels\nHeight                           : 720 pixels\nDisplay aspect ratio             : 16:9\nFrame rate                       : 29.970 fps\nColor space                      : YUV\nChroma subsampling               : 4:2:0\nBit depth                        : 8 bits\nScan type                        : Progressive\nBits/(Pixel*Frame)               : 0.138\nStream size                      : 114 MiB (97%)\nWriting library                  : XviD 1.1.2 (UTC 2006-11-01)\n\nAudio\nID                               : 1\nFormat                           : MPEG Audio\nFormat version                   : Version 1\nFormat profile                   : Layer 3\nMode                             : Joint stereo\nCodec ID                         : 55\nCodec ID/Hint                    : MP3\nDuration                         : 4mn 9s\nBit rate mode                    : Constant\nBit rate                         : 112 Kbps\nChannel(s)                       : 2 channels\nSampling rate                    : 48.0 KHz\nStream size                      : 3.34 MiB (3%)\nAlignment                        : Aligned on interleaves\nInterleave, duration             : 24 ms (0.72 video frame)\nInterleave, preload duration     : 24 ms\n\n","torrent":{"xt":"urn:btih:217a7c7c4079afd4dc5e35e0a73d62fb920e8675","amp;dn":"Live_Music_Performances_From_Talk_Shows+And_MP3-1-24-to-27","amp;tr":["udp%3A%2F%2Ftracker.openbittorrent.com%3A80","udp%3A%2F%2Fopen.demonii.com%3A1337","udp%3A%2F%2Ftracker.coppersurfer.tk%3A6969","udp%3A%2F%2Fexodus.desync.com%3A6969"],"infoHash":"217a7c7c4079afd4dc5e35e0a73d62fb920e8675","infoHashBuffer":{"type":"Buffer","data":[33,122,124,124,64,121,175,212,220,94,53,224,167,61,98,251,146,14,134,117]},"announce":[],"urlList":[]}}